solid 
facet normal 0.3228475 -0.69429886 0.6432096
 outer loop
  vertex 1.339847 0.1850403 1.0819288
  vertex -0.5473542 -0.18179446 1.6332036
  vertex -0.694152 -1.573638 0.20449027
 endloop
endfacet
facet normal 0.32284743 -0.69429886 0.6432096
 outer loop
  vertex 1.339847 0.1850403 1.0819288
  vertex -0.694152 -1.573638 0.20449027
  vertex 1.1930492 -1.2068033 -0.34678447
 endloop
endfacet
facet normal -0.07339894 -0.6959218 -0.71435666
 outer loop
  vertex 0.5473542 0.18179446 -1.6332036
  vertex 1.1930492 -1.2068033 -0.34678447
  vertex -0.694152 -1.573638 0.20449027
 endloop
endfacet
facet normal -0.07339895 -0.6959218 -0.71435666
 outer loop
  vertex 0.5473542 0.18179446 -1.6332036
  vertex -0.694152 -1.573638 0.20449027
  vertex -1.339847 -0.1850403 -1.0819288
 endloop
endfacet
facet normal -0.9436006 -0.1834174 0.2756374
 outer loop
  vertex -1.339847 -0.1850403 -1.0819288
  vertex -0.694152 -1.573638 0.20449027
  vertex -0.5473542 -0.18179446 1.6332036
 endloop
endfacet
facet normal -0.9436006 -0.1834174 0.2756374
 outer loop
  vertex -1.339847 -0.1850403 -1.0819288
  vertex -0.5473542 -0.18179446 1.6332036
  vertex -1.1930492 1.2068033 0.34678447
 endloop
endfacet
facet normal -0.32284746 0.69429886 -0.6432096
 outer loop
  vertex -1.1930492 1.2068033 0.34678447
  vertex 0.694152 1.573638 -0.20449027
  vertex 0.5473542 0.18179446 -1.6332036
 endloop
endfacet
facet normal -0.3228475 0.69429886 -0.64320964
 outer loop
  vertex -1.1930492 1.2068033 0.34678447
  vertex 0.5473542 0.18179446 -1.6332036
  vertex -1.339847 -0.1850403 -1.0819288
 endloop
endfacet
facet normal 0.9436006 0.1834174 -0.2756374
 outer loop
  vertex 0.694152 1.573638 -0.20449027
  vertex 1.339847 0.1850403 1.0819288
  vertex 1.1930492 -1.2068033 -0.34678447
 endloop
endfacet
facet normal 0.9436006 0.1834174 -0.27563736
 outer loop
  vertex 0.694152 1.573638 -0.20449027
  vertex 1.1930492 -1.2068033 -0.34678447
  vertex 0.5473542 0.18179446 -1.6332036
 endloop
endfacet
facet normal 0.0733989 0.6959218 0.71435666
 outer loop
  vertex -1.1930492 1.2068033 0.34678447
  vertex -0.5473542 -0.18179446 1.6332036
  vertex 1.339847 0.1850403 1.0819288
 endloop
endfacet
facet normal 0.073398955 0.6959218 0.71435666
 outer loop
  vertex -1.1930492 1.2068033 0.34678447
  vertex 1.339847 0.1850403 1.0819288
  vertex 0.694152 1.573638 -0.20449027
 endloop
endfacet
endsolid 
